# xmcd CD database file
#
# Track frame offsets:
#	150
#	12004
#	23071
#	33958
#	44677
#	54256
#	62733
#	71857
#	83103
#	93265
#	106900
#	123619
#
# Disc length: 1741 seconds
#
# Revision: 0
# Processed by: cddbd v1.5.2PL0 Copyright (c) Steve Scherf et al.
# Submitted via: CDex 1.70beta3
#
DISCID=9706cb0c
DTITLE=Joe Derise - Joe Derise With The Australian Jazz Quintet
DYEAR=1955
DGENRE=Jazz
TTITLE0=Personality
TTITLE1=Once I Believed
TTITLE2=Swinging On A Star
TTITLE3=Humpty Dumpty Heart
TTITLE4='S Wonderful
TTITLE5=More And More
TTITLE6=Ac-Cent-Tchu-Ate The Positive
TTITLE7=Once In A Dream
TTITLE8=Soon
TTITLE9=The Charm Of You
TTITLE10=Spring In Old New York
TTITLE11=Love
EXTD=YEAR: 1955
EXTT0=
EXTT1=
EXTT2=
EXTT3=
EXTT4=
EXTT5=
EXTT6=
EXTT7=
EXTT8=
EXTT9=
EXTT10=
EXTT11=
PLAYORDER=
